# Blender v2.78 (sub 0) OBJ File: ''
# www.blender.org
mtllib jaw.mtl
o jaw_Cube.001
v 0.002009 -0.000001 0.002598
v 0.002009 0.001499 0.002598
v 0.002009 0.000000 0.004790
v 0.002009 -0.001824 0.004790
v 0.000009 0.000000 0.004790
v 0.000009 -0.001824 0.004790
v 0.000009 -0.001505 0.010767
v 0.000009 0.000000 0.010767
v 0.000009 0.001499 0.002598
v 0.000009 -0.000001 0.002598
v -0.000975 0.000000 0.002401
v -0.000975 0.001500 0.002401
v -0.001407 0.001500 0.002169
v -0.001407 0.000000 0.002169
v -0.001786 0.001500 0.001859
v -0.001786 0.000000 0.001859
v -0.002097 0.001500 0.001480
v -0.002097 0.000000 0.001480
v -0.002328 0.001500 0.001048
v -0.002328 0.000000 0.001048
v -0.002470 0.001500 0.000579
v -0.002470 0.000000 0.000579
v -0.002518 0.001500 0.000091
v -0.002518 0.000000 0.000091
v -0.002470 0.001500 -0.000397
v -0.002470 -0.000000 -0.000397
v -0.002328 0.001500 -0.000866
v -0.002328 -0.000000 -0.000866
v -0.002097 0.001500 -0.001298
v -0.002097 -0.000000 -0.001298
v -0.001786 0.001500 -0.001677
v -0.001786 -0.000000 -0.001677
v -0.001407 0.001500 -0.001988
v -0.001407 -0.000000 -0.001988
v -0.000975 0.001500 -0.002219
v -0.000975 -0.000000 -0.002219
v -0.000506 0.001500 -0.002361
v -0.000506 -0.000000 -0.002361
v -0.000018 0.001500 -0.002409
v -0.000018 -0.000000 -0.002409
v 0.000470 0.001500 -0.002361
v 0.000470 -0.000000 -0.002361
v 0.000939 0.001500 -0.002219
v 0.000939 -0.000000 -0.002219
v 0.001371 0.001500 -0.001988
v 0.001371 -0.000000 -0.001988
v 0.001750 0.001500 -0.001677
v 0.001750 -0.000000 -0.001677
v 0.002061 0.001500 -0.001298
v 0.002061 -0.000000 -0.001298
v 0.002292 0.001500 -0.000866
v 0.002292 -0.000000 -0.000866
v 0.002434 0.001500 -0.000397
v 0.002434 -0.000000 -0.000397
v 0.002482 0.001500 0.000091
v 0.002482 0.000000 0.000091
v 0.002434 0.001500 0.000579
v 0.002434 0.000000 0.000579
v 0.002292 0.001500 0.001048
v 0.002292 0.000000 0.001048
v 0.002061 0.001500 0.001480
v 0.002061 0.000000 0.001480
v 0.001750 0.001500 0.001859
v 0.001750 0.000000 0.001859
v 0.001371 0.000000 0.002169
v 0.000939 0.001500 0.002401
v 0.001371 0.001500 0.002169
v -0.000018 0.001500 -0.000164
v 0.000000 0.000000 0.000000
v 0.000939 0.000000 0.002401
v 0.000971 -0.001505 0.010767
v 0.000971 0.000000 0.010767
vn 1.0000 0.0000 -0.0000
vn -1.0000 0.0000 0.0000
vn -0.0000 -0.7689 -0.6394
vn 0.0000 0.8254 0.5645
vn -0.4714 0.0000 0.8819
vn -0.6344 0.0000 0.7730
vn -0.7730 0.0000 0.6343
vn -0.8818 0.0000 0.4715
vn -0.9570 0.0000 0.2901
vn -0.9952 0.0000 0.0979
vn -0.9952 0.0000 -0.0979
vn -0.9570 0.0000 -0.2901
vn -0.8818 0.0000 -0.4715
vn -0.7730 0.0000 -0.6343
vn -0.6343 -0.0000 -0.7730
vn -0.4715 -0.0000 -0.8818
vn -0.2902 0.0000 -0.9570
vn -0.0979 0.0000 -0.9952
vn 0.0982 -0.0000 -0.9952
vn 0.2902 -0.0000 -0.9570
vn 0.4715 -0.0000 -0.8818
vn 0.6343 -0.0000 -0.7730
vn 0.7730 0.0000 -0.6343
vn 0.8818 -0.0000 -0.4715
vn 0.9570 0.0000 -0.2901
vn 0.9952 0.0000 -0.0979
vn 0.9952 -0.0000 0.0979
vn 0.9570 -0.0000 0.2901
vn 0.8818 0.0000 0.4715
vn 0.7730 -0.0000 0.6343
vn -0.0004 -1.0000 -0.0006
vn -0.0003 -1.0000 -0.0003
vn -0.0005 -1.0000 -0.0041
vn 0.0005 1.0000 0.0001
vn 0.0005 1.0000 0.0041
vn 0.0004 1.0000 0.0006
vn 0.0000 1.0000 0.0000
vn 0.0003 1.0000 0.0003
vn 0.0000 1.0000 0.0034
vn 0.0000 -1.0000 0.0000
vn -0.0005 -1.0000 -0.0001
vn -0.0000 -1.0000 -0.0034
vn -0.1963 0.0000 0.9805
vn 0.0000 1.0000 0.0057
vn 0.0000 -1.0000 -0.0057
vn 0.0000 -0.9986 0.0533
vn 0.9853 0.0000 0.1711
vn 0.9437 0.0000 -0.3307
vn 0.0000 0.0000 1.0000
usemtl None
s 1
f 1//1 2//1 3//1 4//1
f 5//2 6//2 7//2 8//2
f 6//2 5//2 9//2 10//2
f 4//3 6//3 10//3 1//3
f 5//4 3//4 2//4 9//4
f 11//5 12//5 13//5 14//5
f 14//6 13//6 15//6 16//6
f 16//7 15//7 17//7 18//7
f 18//8 17//8 19//8 20//8
f 20//9 19//9 21//9 22//9
f 22//10 21//10 23//10 24//10
f 24//11 23//11 25//11 26//11
f 26//12 25//12 27//12 28//12
f 28//13 27//13 29//13 30//13
f 30//14 29//14 31//14 32//14
f 32//15 31//15 33//15 34//15
f 34//16 33//16 35//16 36//16
f 36//17 35//17 37//17 38//17
f 38//18 37//18 39//18 40//18
f 40//19 39//19 41//19 42//19
f 42//20 41//20 43//20 44//20
f 44//21 43//21 45//21 46//21
f 46//22 45//22 47//22 48//22
f 48//23 47//23 49//23 50//23
f 50//24 49//24 51//24 52//24
f 52//25 51//25 53//25 54//25
f 54//26 53//26 55//26 56//26
f 56//27 55//27 57//27 58//27
f 58//28 57//28 59//28 60//28
f 60//29 59//29 61//29 62//29
f 62//30 61//30 63//30 64//30
f 65//31 64//32 1//33
f 66//34 2//35 67//36
f 29//37 27//37 68//37
f 47//37 45//37 68//37
f 67//36 63//38 68//37
f 21//37 19//37 68//37
f 39//37 37//37 68//37
f 57//37 55//37 68//37
f 13//37 12//39 68//37
f 31//37 29//37 68//37
f 49//37 47//37 68//37
f 66//34 67//36 68//37
f 23//37 21//37 68//37
f 41//37 39//37 68//37
f 59//37 57//37 68//37
f 15//37 13//37 68//37
f 33//37 31//37 68//37
f 51//37 49//37 68//37
f 25//37 23//37 68//37
f 43//37 41//37 68//37
f 61//37 59//37 68//37
f 17//37 15//37 68//37
f 35//37 33//37 68//37
f 53//37 51//37 68//37
f 27//37 25//37 68//37
f 45//37 43//37 68//37
f 63//38 61//37 68//37
f 19//37 17//37 68//37
f 37//37 35//37 68//37
f 55//37 53//37 68//37
f 28//40 30//40 69//40
f 48//40 50//40 69//40
f 58//40 60//40 69//40
f 14//40 16//40 69//40
f 24//40 26//40 69//40
f 34//40 36//40 69//40
f 44//40 46//40 69//40
f 54//40 56//40 69//40
f 64//32 65//31 69//40
f 20//40 22//40 69//40
f 30//40 32//40 69//40
f 50//40 52//40 69//40
f 60//40 62//40 69//40
f 16//40 18//40 69//40
f 26//40 28//40 69//40
f 46//40 48//40 69//40
f 56//40 58//40 69//40
f 65//31 70//41 69//40
f 11//42 14//40 69//40
f 22//40 24//40 69//40
f 32//40 34//40 69//40
f 42//40 44//40 69//40
f 52//40 54//40 69//40
f 62//40 64//32 69//40
f 18//40 20//40 69//40
f 68//37 12//39 66//34
f 69//40 70//41 11//42
f 10//43 9//43 12//43 11//43
f 2//35 66//34 12//39 9//44
f 70//41 65//31 1//33
f 1//33 10//45 11//42 70//41
f 38//40 69//40 36//40
f 40//40 69//40 38//40
f 42//40 69//40 40//40
f 6//46 4//46 71//46 7//46
f 3//37 5//37 8//37 72//37
f 4//47 3//47 72//47 71//47
f 63//38 67//36 2//35
f 1//48 64//48 63//48 2//48
f 71//49 72//49 8//49 7//49
