# Blender v2.78 (sub 0) OBJ File: 'jaw_large.blend'
# www.blender.org
mtllib jaw_large.mtl
o jaw_Cube.001
v 0.003893 -0.001575 0.004322
v 0.003893 0.002424 0.004322
v 0.006528 -0.000380 0.011567
v 0.006528 -0.004776 0.011567
v 0.002528 -0.000379 0.011567
v 0.002528 -0.004776 0.011567
v 0.000240 -0.004138 0.025514
v 0.000240 -0.000381 0.025514
v -0.000107 0.002424 0.004322
v -0.000107 -0.001575 0.004322
v -0.002075 -0.001573 0.003928
v -0.002075 0.002426 0.003928
v -0.002939 0.002426 0.003464
v -0.002939 -0.001573 0.003464
v -0.003697 0.002426 0.002844
v -0.003697 -0.001573 0.002844
v -0.004319 0.002426 0.002086
v -0.004319 -0.001573 0.002086
v -0.004781 0.002426 0.001222
v -0.004781 -0.001573 0.001222
v -0.005065 0.002426 0.000284
v -0.005065 -0.001573 0.000284
v -0.005161 0.002426 -0.000692
v -0.005161 -0.001573 -0.000692
v -0.005065 0.002426 -0.001668
v -0.005065 -0.001573 -0.001668
v -0.004781 0.002426 -0.002606
v -0.004781 -0.001573 -0.002606
v -0.004319 0.002426 -0.003470
v -0.004319 -0.001573 -0.003470
v -0.003697 0.002426 -0.004228
v -0.003697 -0.001573 -0.004228
v -0.002939 0.002426 -0.004850
v -0.002939 -0.001573 -0.004850
v -0.002075 0.002426 -0.005312
v -0.002075 -0.001573 -0.005312
v -0.001137 0.002426 -0.005596
v -0.001137 -0.001573 -0.005596
v -0.000161 0.002426 -0.005692
v -0.000161 -0.001573 -0.005692
v 0.000815 0.002426 -0.005596
v 0.000815 -0.001573 -0.005596
v 0.001753 0.002426 -0.005312
v 0.001753 -0.001573 -0.005312
v 0.002617 0.002426 -0.004850
v 0.002617 -0.001573 -0.004850
v 0.003375 0.002426 -0.004228
v 0.003375 -0.001573 -0.004228
v 0.003997 0.002426 -0.003470
v 0.003997 -0.001573 -0.003470
v 0.004459 0.002426 -0.002606
v 0.004459 -0.001573 -0.002606
v 0.004743 0.002426 -0.001668
v 0.004743 -0.001573 -0.001668
v 0.004839 0.002426 -0.000692
v 0.004839 -0.001573 -0.000692
v 0.004743 0.002426 0.000284
v 0.004743 -0.001573 0.000284
v 0.004459 0.002426 0.001222
v 0.004459 -0.001573 0.001222
v 0.003997 0.002426 0.002086
v 0.003997 -0.001573 0.002086
v 0.003375 0.002426 0.002844
v 0.003375 -0.001573 0.002844
v 0.002617 -0.001573 0.003464
v 0.001753 0.002426 0.003928
v 0.002617 0.002426 0.003464
v -0.000161 0.002426 -0.001202
v -0.000125 -0.001573 -0.000874
v 0.001753 -0.001573 0.003928
v 0.002164 -0.004138 0.025514
v 0.002164 -0.000381 0.025514
vn 0.9398 0.0000 -0.3418
vn -0.9929 0.0000 0.1190
vn -0.9982 0.0000 0.0594
vn -0.9868 0.0000 -0.1619
vn -0.9398 0.0000 0.3418
vn 0.0000 -0.9147 -0.4042
vn 0.0001 0.9326 0.3609
vn -0.4714 0.0000 0.8819
vn -0.6344 -0.0000 0.7730
vn -0.7730 0.0000 0.6343
vn -0.8818 0.0000 0.4715
vn -0.9571 -0.0000 0.2898
vn -0.9952 -0.0000 0.0979
vn -0.9952 -0.0000 -0.0979
vn -0.9571 0.0000 -0.2898
vn -0.8818 0.0000 -0.4715
vn -0.7730 0.0000 -0.6343
vn -0.6343 0.0000 -0.7730
vn -0.4715 0.0000 -0.8818
vn -0.2902 0.0000 -0.9570
vn -0.0979 0.0000 -0.9952
vn 0.0984 -0.0000 -0.9952
vn 0.2902 -0.0000 -0.9570
vn 0.4715 0.0000 -0.8818
vn 0.6343 0.0000 -0.7730
vn 0.7730 0.0000 -0.6343
vn 0.8818 0.0000 -0.4715
vn 0.9571 0.0000 -0.2898
vn 0.9952 0.0000 -0.0979
vn 0.9952 0.0000 0.0979
vn 0.9571 0.0000 0.2898
vn 0.8818 -0.0000 0.4715
vn 0.7730 0.0000 0.6343
vn -0.0004 -1.0000 -0.0006
vn -0.0003 -1.0000 -0.0003
vn -0.0005 -1.0000 -0.0040
vn 0.0005 1.0000 0.0001
vn 0.0005 1.0000 0.0040
vn 0.0004 1.0000 0.0006
vn -0.0000 1.0000 0.0000
vn 0.0003 1.0000 0.0003
vn 0.0000 1.0000 0.0034
vn -0.0000 -1.0000 -0.0000
vn -0.0005 -1.0000 -0.0001
vn -0.0000 -1.0000 -0.0034
vn -0.1963 0.0000 0.9805
vn 0.0000 1.0000 0.0057
vn 0.0000 -1.0000 -0.0057
vn 0.0000 -0.9990 0.0457
vn 0.0001 1.0000 0.0002
vn 0.9544 0.0000 0.2986
vn 0.9437 0.0000 -0.3307
vn 0.0000 0.0000 1.0000
usemtl None
s 1
f 1//1 2//1 3//1 4//1
f 5//2 6//3 7//4 8//4
f 6//3 5//2 9//5 10//5
f 4//6 6//6 10//6 1//6
f 5//7 3//7 2//7 9//7
f 11//8 12//8 13//8 14//8
f 14//9 13//9 15//9 16//9
f 16//10 15//10 17//10 18//10
f 18//11 17//11 19//11 20//11
f 20//12 19//12 21//12 22//12
f 22//13 21//13 23//13 24//13
f 24//14 23//14 25//14 26//14
f 26//15 25//15 27//15 28//15
f 28//16 27//16 29//16 30//16
f 30//17 29//17 31//17 32//17
f 32//18 31//18 33//18 34//18
f 34//19 33//19 35//19 36//19
f 36//20 35//20 37//20 38//20
f 38//21 37//21 39//21 40//21
f 40//22 39//22 41//22 42//22
f 42//23 41//23 43//23 44//23
f 44//24 43//24 45//24 46//24
f 46//25 45//25 47//25 48//25
f 48//26 47//26 49//26 50//26
f 50//27 49//27 51//27 52//27
f 52//28 51//28 53//28 54//28
f 54//29 53//29 55//29 56//29
f 56//30 55//30 57//30 58//30
f 58//31 57//31 59//31 60//31
f 60//32 59//32 61//32 62//32
f 62//33 61//33 63//33 64//33
f 65//34 64//35 1//36
f 66//37 2//38 67//39
f 29//40 27//40 68//40
f 47//40 45//40 68//40
f 67//39 63//41 68//40
f 21//40 19//40 68//40
f 39//40 37//40 68//40
f 57//40 55//40 68//40
f 13//40 12//42 68//40
f 31//40 29//40 68//40
f 49//40 47//40 68//40
f 66//37 67//39 68//40
f 23//40 21//40 68//40
f 41//40 39//40 68//40
f 59//40 57//40 68//40
f 15//40 13//40 68//40
f 33//40 31//40 68//40
f 51//40 49//40 68//40
f 25//40 23//40 68//40
f 43//40 41//40 68//40
f 61//40 59//40 68//40
f 17//40 15//40 68//40
f 35//40 33//40 68//40
f 53//40 51//40 68//40
f 27//40 25//40 68//40
f 45//40 43//40 68//40
f 63//41 61//40 68//40
f 19//40 17//40 68//40
f 37//40 35//40 68//40
f 55//40 53//40 68//40
f 28//43 30//43 69//43
f 48//43 50//43 69//43
f 58//43 60//43 69//43
f 14//43 16//43 69//43
f 24//43 26//43 69//43
f 34//43 36//43 69//43
f 44//43 46//43 69//43
f 54//43 56//43 69//43
f 64//35 65//34 69//43
f 20//43 22//43 69//43
f 30//43 32//43 69//43
f 50//43 52//43 69//43
f 60//43 62//43 69//43
f 16//43 18//43 69//43
f 26//43 28//43 69//43
f 46//43 48//43 69//43
f 56//43 58//43 69//43
f 65//34 70//44 69//43
f 11//45 14//43 69//43
f 22//43 24//43 69//43
f 32//43 34//43 69//43
f 42//43 44//43 69//43
f 52//43 54//43 69//43
f 62//43 64//35 69//43
f 18//43 20//43 69//43
f 68//40 12//42 66//37
f 69//43 70//44 11//45
f 10//46 9//46 12//46 11//46
f 2//38 66//37 12//42 9//47
f 70//44 65//34 1//36
f 1//36 10//48 11//45 70//44
f 38//43 69//43 36//43
f 40//43 69//43 38//43
f 42//43 69//43 40//43
f 6//49 4//49 71//49 7//49
f 3//50 5//50 8//50 72//50
f 4//51 3//51 72//51 71//51
f 63//41 67//39 2//38
f 1//52 64//52 63//52 2//52
f 71//53 72//53 8//53 7//53
