# Blender v2.78 (sub 0) OBJ File: 'suture_plane.blend'
# www.blender.org
mtllib suture_plane.mtl
o Plane
v 0.030000 -0.002000 -0.010000
v -0.030000 -0.002000 -0.010000
v 0.030000 -0.002000 0.010000
v -0.030000 -0.002000 0.010000
v -0.030000 0.000000 0.010000
v 0.030000 0.000000 0.010000
v -0.030000 0.000000 -0.010000
v 0.030000 0.000000 -0.010000
v 0.020000 0.000000 -0.004000
v 0.019220 0.000000 -0.003923
v 0.018469 0.000000 -0.003696
v 0.017778 0.000000 -0.003326
v 0.017172 0.000000 -0.002828
v 0.016674 0.000000 -0.002222
v 0.016304 0.000000 -0.001531
v 0.016077 0.000000 -0.000780
v 0.016000 0.000000 -0.000000
v 0.016077 0.000000 0.000780
v 0.016304 0.000000 0.001531
v 0.016674 0.000000 0.002222
v 0.017172 0.000000 0.002828
v 0.017778 0.000000 0.003326
v 0.018469 0.000000 0.003696
v 0.019220 0.000000 0.003923
v 0.020000 0.000000 0.004000
v 0.020780 0.000000 0.003923
v 0.021531 0.000000 0.003696
v 0.022222 0.000000 0.003326
v 0.022828 0.000000 0.002828
v 0.023326 0.000000 0.002222
v 0.023696 0.000000 0.001531
v 0.023923 0.000000 0.000780
v 0.024000 0.000000 -0.000000
v 0.023923 0.000000 -0.000780
v 0.023696 0.000000 -0.001531
v 0.023326 0.000000 -0.002222
v 0.022828 0.000000 -0.002828
v 0.022222 0.000000 -0.003326
v 0.021531 0.000000 -0.003696
v 0.020780 0.000000 -0.003923
v -0.020000 0.000000 -0.004000
v -0.020780 0.000000 -0.003923
v -0.021531 0.000000 -0.003696
v -0.022222 0.000000 -0.003326
v -0.022828 0.000000 -0.002828
v -0.023326 0.000000 -0.002222
v -0.023696 0.000000 -0.001531
v -0.023923 0.000000 -0.000780
v -0.024000 0.000000 -0.000000
v -0.023923 0.000000 0.000780
v -0.023696 0.000000 0.001531
v -0.023326 0.000000 0.002222
v -0.022828 0.000000 0.002828
v -0.022222 0.000000 0.003326
v -0.021531 0.000000 0.003696
v -0.020780 0.000000 0.003923
v -0.020000 0.000000 0.004000
v -0.019220 0.000000 0.003923
v -0.018469 0.000000 0.003696
v -0.017778 0.000000 0.003326
v -0.017172 0.000000 0.002828
v -0.016674 0.000000 0.002222
v -0.016304 0.000000 0.001531
v -0.016077 0.000000 0.000780
v -0.016000 0.000000 -0.000000
v -0.016077 0.000000 -0.000780
v -0.016304 0.000000 -0.001531
v -0.016674 0.000000 -0.002222
v -0.017172 0.000000 -0.002828
v -0.017778 0.000000 -0.003326
v -0.018469 0.000000 -0.003696
v -0.019220 0.000000 -0.003923
v 0.000000 0.000000 -0.004000
v -0.000780 0.000000 -0.003923
v -0.001531 0.000000 -0.003696
v -0.002222 0.000000 -0.003326
v -0.002828 0.000000 -0.002828
v -0.003326 0.000000 -0.002222
v -0.003696 0.000000 -0.001531
v -0.003923 0.000000 -0.000780
v -0.004000 0.000000 -0.000000
v -0.003923 0.000000 0.000780
v -0.003696 0.000000 0.001531
v -0.003326 0.000000 0.002222
v -0.002828 0.000000 0.002828
v -0.002222 0.000000 0.003326
v -0.001531 0.000000 0.003696
v -0.000780 0.000000 0.003923
v 0.000000 0.000000 0.004000
v 0.000780 0.000000 0.003923
v 0.001531 0.000000 0.003696
v 0.002222 0.000000 0.003326
v 0.002828 0.000000 0.002828
v 0.003326 0.000000 0.002222
v 0.003696 0.000000 0.001531
v 0.003923 0.000000 0.000780
v 0.004000 0.000000 -0.000000
v 0.003923 0.000000 -0.000780
v 0.003696 0.000000 -0.001531
v 0.003326 0.000000 -0.002222
v 0.002828 0.000000 -0.002828
v 0.002222 0.000000 -0.003326
v 0.001531 0.000000 -0.003696
v 0.000780 0.000000 -0.003923
v 0.020000 -0.002000 -0.004000
v 0.019220 -0.002000 -0.003923
v 0.018469 -0.002000 -0.003696
v 0.017778 -0.002000 -0.003326
v 0.017172 -0.002000 -0.002828
v 0.016674 -0.002000 -0.002222
v 0.016304 -0.002000 -0.001531
v 0.016077 -0.002000 -0.000780
v 0.016000 -0.002000 -0.000000
v 0.016077 -0.002000 0.000780
v 0.016304 -0.002000 0.001531
v 0.016674 -0.002000 0.002222
v 0.017172 -0.002000 0.002828
v 0.017778 -0.002000 0.003326
v 0.018469 -0.002000 0.003696
v 0.019220 -0.002000 0.003923
v 0.020000 -0.002000 0.004000
v 0.020780 -0.002000 0.003923
v 0.021531 -0.002000 0.003696
v 0.022222 -0.002000 0.003326
v 0.022828 -0.002000 0.002828
v 0.023326 -0.002000 0.002222
v 0.023696 -0.002000 0.001531
v 0.023923 -0.002000 0.000780
v 0.024000 -0.002000 -0.000000
v 0.023923 -0.002000 -0.000780
v 0.023696 -0.002000 -0.001531
v 0.023326 -0.002000 -0.002222
v 0.022828 -0.002000 -0.002828
v 0.022222 -0.002000 -0.003326
v 0.021531 -0.002000 -0.003696
v 0.020780 -0.002000 -0.003923
v -0.020000 -0.002000 -0.004000
v -0.020780 -0.002000 -0.003923
v -0.021531 -0.002000 -0.003696
v -0.022222 -0.002000 -0.003326
v -0.022828 -0.002000 -0.002828
v -0.023326 -0.002000 -0.002222
v -0.023696 -0.002000 -0.001531
v -0.023923 -0.002000 -0.000780
v -0.024000 -0.002000 -0.000000
v -0.023923 -0.002000 0.000780
v -0.023696 -0.002000 0.001531
v -0.023326 -0.002000 0.002222
v -0.022828 -0.002000 0.002828
v -0.022222 -0.002000 0.003326
v -0.021531 -0.002000 0.003696
v -0.020780 -0.002000 0.003923
v -0.020000 -0.002000 0.004000
v -0.019220 -0.002000 0.003923
v -0.018469 -0.002000 0.003696
v -0.017778 -0.002000 0.003326
v -0.017172 -0.002000 0.002828
v -0.016674 -0.002000 0.002222
v -0.016304 -0.002000 0.001531
v -0.016077 -0.002000 0.000780
v -0.016000 -0.002000 -0.000000
v -0.016077 -0.002000 -0.000780
v -0.016304 -0.002000 -0.001531
v -0.016674 -0.002000 -0.002222
v -0.017172 -0.002000 -0.002828
v -0.017778 -0.002000 -0.003326
v -0.018469 -0.002000 -0.003696
v -0.019220 -0.002000 -0.003923
v 0.000000 -0.002000 -0.004000
v -0.000780 -0.002000 -0.003923
v -0.001531 -0.002000 -0.003696
v -0.002222 -0.002000 -0.003326
v -0.002828 -0.002000 -0.002828
v -0.003326 -0.002000 -0.002222
v -0.003696 -0.002000 -0.001531
v -0.003923 -0.002000 -0.000780
v -0.004000 -0.002000 -0.000000
v -0.003923 -0.002000 0.000780
v -0.003696 -0.002000 0.001531
v -0.003326 -0.002000 0.002222
v -0.002828 -0.002000 0.002828
v -0.002222 -0.002000 0.003326
v -0.001531 -0.002000 0.003696
v -0.000780 -0.002000 0.003923
v 0.000000 -0.002000 0.004000
v 0.000780 -0.002000 0.003923
v 0.001531 -0.002000 0.003696
v 0.002222 -0.002000 0.003326
v 0.002828 -0.002000 0.002828
v 0.003326 -0.002000 0.002222
v 0.003696 -0.002000 0.001531
v 0.003923 -0.002000 0.000780
v 0.004000 -0.002000 -0.000000
v 0.003923 -0.002000 -0.000780
v 0.003696 -0.002000 -0.001531
v 0.003326 -0.002000 -0.002222
v 0.002828 -0.002000 -0.002828
v 0.002222 -0.002000 -0.003326
v 0.001531 -0.002000 -0.003696
v 0.000780 -0.002000 -0.003923
vn 0.0000 1.0000 0.0000
vn 0.0000 -1.0000 0.0000
vn 0.9569 0.0000 -0.2903
vn -0.4714 0.0000 0.8819
vn 0.8819 0.0000 -0.4714
vn -0.2903 0.0000 0.9569
vn 0.7730 0.0000 -0.6344
vn -0.0980 0.0000 0.9952
vn 0.6344 0.0000 -0.7730
vn 0.0980 0.0000 0.9952
vn 0.4714 0.0000 -0.8819
vn 0.2903 0.0000 0.9569
vn 0.2903 0.0000 -0.9569
vn 0.4714 0.0000 0.8819
vn 0.0980 0.0000 -0.9952
vn 0.6344 0.0000 0.7730
vn -0.0980 0.0000 -0.9952
vn 0.7730 0.0000 0.6344
vn -0.2903 0.0000 -0.9569
vn 0.8819 0.0000 0.4714
vn -0.4714 0.0000 -0.8819
vn 0.9569 0.0000 0.2903
vn -0.6344 0.0000 -0.7730
vn 0.9952 0.0000 0.0980
vn -0.7730 0.0000 -0.6344
vn 0.9952 0.0000 -0.0980
vn -0.8819 0.0000 -0.4714
vn -0.9569 0.0000 -0.2903
vn -0.9952 0.0000 -0.0980
vn -0.9952 0.0000 0.0980
vn -0.9569 0.0000 0.2903
vn -0.8819 0.0000 0.4714
vn -0.7730 0.0000 0.6344
vn -0.6344 0.0000 0.7730
vn -1.0000 0.0000 0.0000
vn 0.0000 0.0000 1.0000
vn 1.0000 0.0000 0.0000
vn 0.0000 0.0000 -1.0000
usemtl None
s off
f 46//1 45//1 7//1
f 46//1 7//1 47//1
f 44//1 43//1 7//1
f 45//1 44//1 7//1
f 43//1 42//1 7//1
f 7//1 49//1 48//1
f 7//1 73//1 8//1
f 8//1 33//1 6//1
f 6//1 90//1 89//1
f 9//1 40//1 8//1
f 40//1 39//1 8//1
f 39//1 38//1 8//1
f 38//1 37//1 8//1
f 37//1 36//1 8//1
f 7//1 48//1 47//1
f 41//1 72//1 7//1
f 142//2 2//2 141//2
f 8//1 10//1 9//1
f 8//1 11//1 10//1
f 72//1 71//1 7//1
f 104//1 103//1 8//1
f 71//1 75//1 7//1
f 103//1 11//1 8//1
f 70//1 75//1 71//1
f 102//1 11//1 103//1
f 70//1 76//1 75//1
f 102//1 12//1 11//1
f 69//1 76//1 70//1
f 101//1 12//1 102//1
f 69//1 77//1 76//1
f 101//1 13//1 12//1
f 68//1 77//1 69//1
f 100//1 13//1 101//1
f 68//1 78//1 77//1
f 100//1 14//1 13//1
f 67//1 78//1 68//1
f 99//1 14//1 100//1
f 7//1 74//1 73//1
f 41//1 7//1 42//1
f 67//1 79//1 78//1
f 99//1 15//1 14//1
f 66//1 79//1 67//1
f 98//1 15//1 99//1
f 35//1 34//1 8//1
f 104//1 8//1 73//1
f 66//1 80//1 79//1
f 98//1 16//1 15//1
f 65//1 80//1 66//1
f 97//1 16//1 98//1
f 34//1 33//1 8//1
f 5//1 49//1 7//1
f 65//1 81//1 80//1
f 97//1 17//1 16//1
f 64//1 81//1 65//1
f 96//1 17//1 97//1
f 32//1 6//1 33//1
f 5//1 50//1 49//1
f 64//1 82//1 81//1
f 96//1 18//1 17//1
f 63//1 82//1 64//1
f 95//1 18//1 96//1
f 31//1 6//1 32//1
f 5//1 51//1 50//1
f 63//1 83//1 82//1
f 95//1 19//1 18//1
f 62//1 83//1 63//1
f 94//1 19//1 95//1
f 30//1 6//1 31//1
f 5//1 52//1 51//1
f 62//1 84//1 83//1
f 94//1 20//1 19//1
f 61//1 84//1 62//1
f 93//1 20//1 94//1
f 29//1 6//1 30//1
f 5//1 53//1 52//1
f 61//1 85//1 84//1
f 93//1 21//1 20//1
f 60//1 85//1 61//1
f 92//1 21//1 93//1
f 28//1 6//1 29//1
f 5//1 54//1 53//1
f 60//1 86//1 85//1
f 92//1 22//1 21//1
f 59//1 86//1 60//1
f 91//1 22//1 92//1
f 27//1 6//1 28//1
f 5//1 55//1 54//1
f 59//1 87//1 86//1
f 91//1 23//1 22//1
f 87//1 59//1 5//1
f 23//1 91//1 6//1
f 26//1 6//1 27//1
f 5//1 56//1 55//1
f 88//1 87//1 5//1
f 24//1 23//1 6//1
f 5//1 59//1 58//1
f 7//1 75//1 74//1
f 25//1 6//1 26//1
f 5//1 57//1 56//1
f 89//1 88//1 5//1
f 25//1 24//1 6//1
f 5//1 58//1 57//1
f 6//1 91//1 90//1
f 35//1 8//1 36//1
f 6//1 89//1 5//1
f 142//2 143//2 2//2
f 140//2 2//2 139//2
f 141//2 2//2 140//2
f 139//2 2//2 138//2
f 2//2 144//2 145//2
f 2//2 1//2 169//2
f 1//2 3//2 129//2
f 3//2 185//2 186//2
f 105//2 1//2 136//2
f 136//2 1//2 135//2
f 135//2 1//2 134//2
f 134//2 1//2 133//2
f 133//2 1//2 132//2
f 2//2 143//2 144//2
f 137//2 2//2 168//2
f 1//2 105//2 106//2
f 1//2 106//2 107//2
f 168//2 2//2 167//2
f 200//2 1//2 199//2
f 167//2 2//2 171//2
f 199//2 1//2 107//2
f 166//2 167//2 171//2
f 198//2 199//2 107//2
f 166//2 171//2 172//2
f 198//2 107//2 108//2
f 165//2 166//2 172//2
f 197//2 198//2 108//2
f 165//2 172//2 173//2
f 197//2 108//2 109//2
f 164//2 165//2 173//2
f 196//2 197//2 109//2
f 164//2 173//2 174//2
f 196//2 109//2 110//2
f 163//2 164//2 174//2
f 195//2 196//2 110//2
f 2//2 169//2 170//2
f 137//2 138//2 2//2
f 163//2 174//2 175//2
f 195//2 110//2 111//2
f 162//2 163//2 175//2
f 194//2 195//2 111//2
f 131//2 1//2 130//2
f 200//2 169//2 1//2
f 162//2 175//2 176//2
f 194//2 111//2 112//2
f 161//2 162//2 176//2
f 193//2 194//2 112//2
f 130//2 1//2 129//2
f 4//2 2//2 145//2
f 161//2 176//2 177//2
f 193//2 112//2 113//2
f 160//2 161//2 177//2
f 192//2 193//2 113//2
f 128//2 129//2 3//2
f 4//2 145//2 146//2
f 160//2 177//2 178//2
f 192//2 113//2 114//2
f 159//2 160//2 178//2
f 191//2 192//2 114//2
f 127//2 128//2 3//2
f 4//2 146//2 147//2
f 159//2 178//2 179//2
f 191//2 114//2 115//2
f 158//2 159//2 179//2
f 190//2 191//2 115//2
f 126//2 127//2 3//2
f 4//2 147//2 148//2
f 158//2 179//2 180//2
f 190//2 115//2 116//2
f 157//2 158//2 180//2
f 189//2 190//2 116//2
f 125//2 126//2 3//2
f 4//2 148//2 149//2
f 157//2 180//2 181//2
f 189//2 116//2 117//2
f 156//2 157//2 181//2
f 188//2 189//2 117//2
f 124//2 125//2 3//2
f 4//2 149//2 150//2
f 156//2 181//2 182//2
f 188//2 117//2 118//2
f 155//2 156//2 182//2
f 187//2 188//2 118//2
f 123//2 124//2 3//2
f 4//2 150//2 151//2
f 155//2 182//2 183//2
f 187//2 118//2 119//2
f 183//2 4//2 155//2
f 119//2 3//2 187//2
f 122//2 123//2 3//2
f 4//2 151//2 152//2
f 184//2 4//2 183//2
f 120//2 3//2 119//2
f 4//2 154//2 155//2
f 2//2 170//2 171//2
f 121//2 122//2 3//2
f 4//2 152//2 153//2
f 185//2 4//2 184//2
f 121//2 3//2 120//2
f 4//2 153//2 154//2
f 3//2 186//2 187//2
f 131//2 132//2 1//2
f 3//2 4//2 185//2
f 18//3 19//3 115//3 114//3
f 70//4 71//4 167//4 166//4
f 19//5 20//5 116//5 115//5
f 71//6 72//6 168//6 167//6
f 20//7 21//7 117//7 116//7
f 72//8 41//8 137//8 168//8
f 21//9 22//9 118//9 117//9
f 73//10 74//10 170//10 169//10
f 22//11 23//11 119//11 118//11
f 74//12 75//12 171//12 170//12
f 23//13 24//13 120//13 119//13
f 75//14 76//14 172//14 171//14
f 24//15 25//15 121//15 120//15
f 76//16 77//16 173//16 172//16
f 25//17 26//17 122//17 121//17
f 77//18 78//18 174//18 173//18
f 26//19 27//19 123//19 122//19
f 78//20 79//20 175//20 174//20
f 27//21 28//21 124//21 123//21
f 79//22 80//22 176//22 175//22
f 28//23 29//23 125//23 124//23
f 80//24 81//24 177//24 176//24
f 29//25 30//25 126//25 125//25
f 81//26 82//26 178//26 177//26
f 30//27 31//27 127//27 126//27
f 82//3 83//3 179//3 178//3
f 31//28 32//28 128//28 127//28
f 83//5 84//5 180//5 179//5
f 32//29 33//29 129//29 128//29
f 84//7 85//7 181//7 180//7
f 33//30 34//30 130//30 129//30
f 85//9 86//9 182//9 181//9
f 34//31 35//31 131//31 130//31
f 86//11 87//11 183//11 182//11
f 35//32 36//32 132//32 131//32
f 87//13 88//13 184//13 183//13
f 36//33 37//33 133//33 132//33
f 88//15 89//15 185//15 184//15
f 37//34 38//34 134//34 133//34
f 89//17 90//17 186//17 185//17
f 38//4 39//4 135//4 134//4
f 90//19 91//19 187//19 186//19
f 39//6 40//6 136//6 135//6
f 91//21 92//21 188//21 187//21
f 40//8 9//8 105//8 136//8
f 92//23 93//23 189//23 188//23
f 41//10 42//10 138//10 137//10
f 93//25 94//25 190//25 189//25
f 42//12 43//12 139//12 138//12
f 94//27 95//27 191//27 190//27
f 43//14 44//14 140//14 139//14
f 95//28 96//28 192//28 191//28
f 44//16 45//16 141//16 140//16
f 96//29 97//29 193//29 192//29
f 45//18 46//18 142//18 141//18
f 97//30 98//30 194//30 193//30
f 46//20 47//20 143//20 142//20
f 98//31 99//31 195//31 194//31
f 47//22 48//22 144//22 143//22
f 99//32 100//32 196//32 195//32
f 48//24 49//24 145//24 144//24
f 100//33 101//33 197//33 196//33
f 49//26 50//26 146//26 145//26
f 101//34 102//34 198//34 197//34
f 50//3 51//3 147//3 146//3
f 102//4 103//4 199//4 198//4
f 51//5 52//5 148//5 147//5
f 103//6 104//6 200//6 199//6
f 52//7 53//7 149//7 148//7
f 5//35 7//35 2//35 4//35
f 104//8 73//8 169//8 200//8
f 53//9 54//9 150//9 149//9
f 6//36 5//36 4//36 3//36
f 54//11 55//11 151//11 150//11
f 8//37 6//37 3//37 1//37
f 55//13 56//13 152//13 151//13
f 7//38 8//38 1//38 2//38
f 56//15 57//15 153//15 152//15
f 57//17 58//17 154//17 153//17
f 58//19 59//19 155//19 154//19
f 59//21 60//21 156//21 155//21
f 60//23 61//23 157//23 156//23
f 9//10 10//10 106//10 105//10
f 61//25 62//25 158//25 157//25
f 10//12 11//12 107//12 106//12
f 62//27 63//27 159//27 158//27
f 11//14 12//14 108//14 107//14
f 63//28 64//28 160//28 159//28
f 12//16 13//16 109//16 108//16
f 64//29 65//29 161//29 160//29
f 13//18 14//18 110//18 109//18
f 65//30 66//30 162//30 161//30
f 14//20 15//20 111//20 110//20
f 66//31 67//31 163//31 162//31
f 15//22 16//22 112//22 111//22
f 67//32 68//32 164//32 163//32
f 16//24 17//24 113//24 112//24
f 68//33 69//33 165//33 164//33
f 17//26 18//26 114//26 113//26
f 69//34 70//34 166//34 165//34
